<svg width="1427" height="723" viewBox="0 0 1427 723" fill="none" xmlns="http://www.w3.org/2000/svg">
<path d="M1247.32 686.22H1268.3C1288.9 686.22 1298.53 680.638 1304.88 664.468L1308.92 654.073L1234.23 466H1276.39L1331.44 613.263L1384.57 466H1426.15L1348.58 667.932C1333.56 707.587 1310.46 722.218 1274.46 722.218H1247.32V686.22Z" fill="#222222"/>
<path d="M1111.49 465.997H1151.34V497.375C1164.23 475.815 1185.22 463.688 1205.24 463.688H1214.28V504.69H1204.08C1172.9 504.69 1151.34 522.593 1151.34 548.195V658.497H1111.49V465.997Z" fill="#222222"/>
<path d="M1069.23 389V658.5H1029.96V623.85C1016.48 648.49 993.961 662.928 966.048 662.928C916.768 662.928 883.658 622.31 883.658 561.48C883.658 500.842 916.768 460.803 966.048 460.803C993.961 460.803 1016.48 475.048 1029.96 499.495V389H1069.23ZM924.083 561.48C924.083 603.638 943.718 627.893 977.021 627.893C1010.52 627.893 1029.96 603.638 1029.96 561.48C1029.96 519.9 1010.52 495.838 977.021 495.838C943.718 495.838 924.083 519.9 924.083 561.48Z" fill="#222222"/>
<path d="M805.735 545.12C805.735 511.625 787.832 497.38 760.112 497.38C733.547 497.38 713.527 516.052 713.527 542.425V658.502H673.68V466.002H713.527V495.262C727.58 473.125 751.45 460.805 774.165 460.805C815.36 460.805 845.197 487.562 845.197 536.65V658.502H805.735V545.12Z" fill="#222222"/>
<path d="M502.504 578.612C502.504 612.877 519.636 627.122 546.201 627.122C571.804 627.122 591.631 607.872 591.631 580.73V466H630.901V658.5H591.631V628.662C577.579 650.992 554.286 663.698 532.149 663.698C491.916 663.698 462.656 636.363 462.656 586.698V466H502.504V578.612Z" fill="#222222"/>
<path d="M238.377 561.482C238.377 500.845 275.914 460.805 331.932 460.805C387.757 460.805 425.102 500.845 425.102 561.482C425.102 622.312 387.757 662.93 331.932 662.93C275.914 662.93 238.377 622.312 238.377 561.482ZM384.484 561.482C384.484 519.902 365.234 495.84 331.932 495.84C298.437 495.84 278.802 519.902 278.802 561.482C278.802 603.64 298.437 627.895 331.932 627.895C365.234 627.895 384.484 603.64 384.484 561.482Z" fill="#222222"/>
<path d="M890.432 297.22H911.414C932.012 297.22 941.637 291.637 947.989 275.467L952.032 265.073L877.342 77H919.499L974.554 224.263L1027.68 77H1069.26L991.687 278.932C976.672 318.587 953.572 333.217 917.574 333.217H890.432V297.22Z" fill="#222222"/>
<path d="M858.256 145.723V269.5H818.601V241.203C805.703 262.57 783.181 273.928 754.691 273.928C716.768 273.928 689.818 249.865 689.818 216.178C689.818 182.49 712.918 162.663 754.306 159.583L808.591 155.348C815.906 154.963 818.601 152.46 818.601 146.108V141.68C818.601 118.388 802.238 102.795 776.058 102.795C751.803 102.795 737.558 115.5 735.056 139.37H694.053C696.941 99.33 729.858 72.1875 776.251 72.1875C824.953 72.1875 858.256 102.218 858.256 145.723ZM729.858 213.483C729.858 231 744.296 242.165 767.011 242.165C797.618 242.165 818.601 221.375 818.601 190.575V183.838L760.851 187.495C740.446 188.843 729.858 197.698 729.858 213.483Z" fill="#222222"/>
<path d="M652.179 0V269.5H612.909V234.85C599.434 259.49 576.912 273.928 548.999 273.928C499.719 273.928 466.609 233.31 466.609 172.48C466.609 111.842 499.719 71.8025 548.999 71.8025C576.912 71.8025 599.434 86.0475 612.909 110.495V0H652.179ZM507.034 172.48C507.034 214.638 526.669 238.893 559.972 238.893C593.467 238.893 612.909 214.638 612.909 172.48C612.909 130.9 593.467 106.838 559.972 106.838C526.669 106.838 507.034 130.9 507.034 172.48Z" fill="#222222"/>
<path d="M386.857 10.2031H430.362V52.5531H386.857V10.2031ZM388.59 77.0006H428.437V269.501H388.59V77.0006Z" fill="#222222"/>
<path d="M253.523 76.9975H293.371V108.375C306.268 86.815 327.251 74.6875 347.271 74.6875H356.318V115.69H346.116C314.931 115.69 293.371 133.593 293.371 159.195V269.498H253.523V76.9975Z" fill="#222222"/>
<path d="M0 132.633V168.823H34.8475V132.633H0Z" fill="#222222"/>
<path d="M214.988 56.5922V19.0547H35V132.63H74.8475V56.5922H214.988Z" fill="#222222"/>
<path d="M204.015 132.633H74.8477V168.823H204.015V132.633Z" fill="#222222"/>
<path d="M74.8475 269.498V168.82H35V269.498H74.8475Z" fill="#222222"/>
<path d="M0 521.578V557.768H34.8475V521.578H0Z" fill="#222222"/>
<path d="M214.988 445.538V408H35V521.575H74.8475V445.538H214.988Z" fill="#222222"/>
<path d="M204.015 521.578H74.8477V557.768H204.015V521.578Z" fill="#222222"/>
<path d="M74.8475 658.443V557.766H35V658.443H74.8475Z" fill="#222222"/>
</svg>
